<svg version="1.2" xmlns="http://www.w3.org/2000/svg" viewBox="0 0 480 480" width="100" height="30" color="currentColor">
	<style>
		.s0 { fill: #ffffff;stroke: #000000;stroke-miterlimit:10;stroke-width: 5 } 
		.s1 { fill: none;stroke: #000000;stroke-miterlimit:10;stroke-width: 5 } 
		.s2 { fill: #ffffff;stroke: #000000;stroke-miterlimit:10;stroke-width: 8 } 
		.s3 { fill: #ffffff;stroke: #000000;stroke-linecap: round;stroke-linejoin: round;stroke-width: 5 } 
	</style>
	<g id="Layer 1">
		<path id="Shape 3" fill-rule="evenodd" class="s0" d="m365.33 131.33l130.66 260.68z"/>
		<path id="Shape 4" fill-rule="evenodd" class="s1" d="m120 438.97l351 0.88z"/>
		<path id="Shape 5" fill-rule="evenodd" class="s1" d="m320 154c-33.18 0-60-26.82-60-60 0-33.18 26.82-60 60-60 33.18 0 60 26.82 60 60 0 33.18-26.82 60-60 60z"/>
		<path id="Shape 6" fill-rule="evenodd" class="s2" d=""/>
		<path id="Shape 7" fill-rule="evenodd" class="s2" d=""/>
		<path id="Shape 8" fill-rule="evenodd" class="s2" d=""/>
		<path id="Shape 9" fill-rule="evenodd" class="s1" d="m509 468c-22.12 0-40-17.88-40-40 0-22.12 17.88-40 40-40 22.12 0 40 17.88 40 40 0 22.12-17.88 40-40 40z"/>
		<path id="Shape 11" fill-rule="evenodd" class="s3" d="m119.32 438.81l20.68-37.9z"/>
		<path id="Shape 12" fill-rule="evenodd" class="s3" d="m320 14.91v158z"/>
		<path id="Shape 13" fill-rule="evenodd" class="s2" d=""/>
		<path id="Shape 14" fill-rule="evenodd" class="s1" d="m344 436.91c12.27-116.46 77.04-134.55 99-145"/>
	</g>
</svg>